<svg width="43" height="140" viewBox="0 0 43 140" fill="none" xmlns="http://www.w3.org/2000/svg">
<path d="M25.9853 83.4873C25.9251 100.754 25.8408 136.029 25.9853 139H17.3759V111.732L6.71953 108.409L1 96.0949V80.7507V66.4816V43.9051V33.5453L2.44493 29.9292H6.71953L9.18796 33.5453V43.9051V66.4816V80.7507V91.7946L12.2584 98.4405H17.3759V68.4363L18.6402 11.653L19.8443 4.61615L21.7107 1H23.5169L27.2496 4.61615L29.0558 11.653L27.2496 68.4363H32.3671L35.1968 66.4816V57.4901V31.8839V15.5623L36.4611 11.653H39.953L42 15.5623V31.8839V57.4901V68.4363L37.906 77.8187L33.812 83.4873H25.9853Z" fill="#14FF00" stroke="#14FF00"/>
</svg>
