<svg width="1602" height="199" viewBox="0 0 1602 199" fill="none" xmlns="http://www.w3.org/2000/svg">
<path d="M1571.95 43.9261L1601 63.4728V198H1V71.5214L11.5164 87.2354L42.0641 55.8074C46.0703 51.847 58.7902 43.9261 77.6196 43.9261C101.156 43.9261 88.1361 55.8074 103.16 71.5214C115.178 84.0926 119.852 91.5791 120.687 93.751L166.258 87.2354C174.771 81.9974 192.9 71.5214 197.307 71.5214C201.714 71.5214 216.169 66.1556 222.847 63.4728L237.87 71.5214L253.394 105.249C264.245 107.421 296.462 103.716 338.527 71.5214C350.546 55.8074 362.565 71.5214 374.083 71.5214C385.601 71.5214 406.634 87.2354 422.158 87.2354C437.682 87.2354 432.174 71.5214 435.679 55.8074C439.185 40.0934 451.203 27.0623 464.724 19.3969C475.541 13.2646 486.258 4.57717 490.264 1L527.823 12.8813L546.352 36.2607C545.851 45.3314 562.878 63.4728 634.991 63.4728C653.52 55.4241 653.52 36.2607 664.036 27.0623C674.552 17.8638 681.063 19.3969 699.591 27.0623C714.415 33.1945 712.779 53.8911 710.108 63.4728C707.27 66.1556 701.194 74.6642 699.591 87.2354C697.588 102.949 705.1 111.765 723.629 122.113C738.452 130.391 747.834 125.562 750.671 122.113L742.158 87.2354C742.826 81.9974 757.782 66.0023 812.268 43.9261C834.302 32.0447 837.807 27.0623 844.818 19.3969C850.427 13.2646 868.522 4.57717 876.869 1C895.064 8.40986 934.859 25.8358 948.48 36.2607C965.507 49.2918 964.005 63.4728 984.537 87.2354C1005.07 110.998 1044.13 93.751 1066.16 105.249C1088.2 116.747 1103.72 105.249 1173.33 93.751C1193.86 82.2529 1229.42 105.249 1251.95 105.249C1274.49 105.249 1279 93.751 1292.52 93.751C1306.04 93.751 1328.57 74.2043 1340.59 71.5214C1350.21 69.3751 1363.63 65.2614 1369.14 63.4728H1391.67L1430.73 93.751C1438.75 97.5837 1457.78 106.552 1469.79 111.765C1481.81 116.977 1491.83 109.593 1495.33 105.249L1519.37 93.751L1539.9 55.8074L1549.92 43.9261H1571.95Z" fill="#1c002c"/>
</svg>
