<svg width="1067" height="252" viewBox="0 0 1067 252" fill="none" xmlns="http://www.w3.org/2000/svg">
<path d="M1 251C3.83333 233.5 10.5 196.1 14.5 186.5C18.5 176.9 16.1667 136.833 14.5 118L31.5 96C34.1667 88.6667 40.6 78.4 45 96C49.4 113.6 54.8333 129.333 57 135L65.5 161L79 144C82.6667 147.833 90.6 158.6 93 171C96 186.5 98 220.5 103 229C107 235.8 112.667 246.5 115 251L133.5 200L147 161L161 144L183 75.5V52L203.5 43.5C207.5 46.5 215.8 54.8 217 64C218.2 73.2 223.167 90.5 225.5 98V135H251L266.5 98L314 75.5L348 52L360 75.5V108L397.5 118L424.5 96V52C427.667 48 435.8 39 443 35C450.2 31 474.667 19.6667 486 14.5L518 35H559H662.5H702L795.5 14.5L838 1C841.333 4.83333 847 15.6 843 28C838 43.5 833 48.5 851.5 62C870 75.5 889 96 901 96C910.6 96 935.667 82.3333 947 75.5C957.833 79.6667 979.8 90 981 98C982.5 108 976 120 989.5 140.5C1003 161 1009.5 186.5 1016.5 186.5C1022.1 186.5 1038.17 205.5 1045.5 215L1066 251H115H1Z" fill="#5300a1"/>
</svg>
