<?xml version="1.0" standalone="no"?>
<!DOCTYPE svg PUBLIC "-//W3C//DTD SVG 20010904//EN"
 "http://www.w3.org/TR/2001/REC-SVG-20010904/DTD/svg10.dtd">
<svg version="1.0" xmlns="http://www.w3.org/2000/svg"
 width="1133.000000pt" height="1280.000000pt" viewBox="0 0 1133.000000 1280.000000"
 preserveAspectRatio="xMidYMid meet">
<metadata>
Created by potrace 1.15, written by Peter Selinger 2001-2017
</metadata>
<g transform="translate(0.000000,1280.000000) scale(0.100000,-0.100000)"
fill="#000000dd" stroke="none">
<path d="M5474 11710 c-102 -27 -190 -74 -250 -135 -68 -71 -84 -118 -84 -255
0 -100 2 -111 31 -169 25 -49 45 -73 93 -108 33 -25 68 -48 76 -51 33 -12 41
-24 27 -41 -8 -9 -243 -358 -523 -776 -716 -1071 -722 -1079 -747 -1087 -12
-4 -103 -12 -202 -18 -174 -10 -283 -18 -615 -40 -85 -6 -218 -15 -295 -20
-77 -5 -207 -14 -290 -20 -226 -16 -412 -28 -590 -39 -88 -6 -181 -13 -206
-17 l-47 -6 -4 94 c-8 158 -45 217 -193 301 -106 60 -150 71 -223 57 -157 -32
-308 -160 -401 -340 -58 -112 -81 -200 -81 -312 0 -162 38 -233 164 -306 115
-67 129 -72 207 -72 56 0 82 6 136 30 37 17 75 38 85 47 17 15 30 -9 244 -443
124 -252 252 -513 284 -579 32 -66 155 -317 274 -559 119 -241 216 -442 216
-446 0 -7 -67 -145 -437 -900 -168 -341 -318 -648 -449 -917 l-109 -222 -55
34 c-69 43 -168 69 -229 61 -61 -8 -224 -100 -267 -150 -47 -55 -68 -124 -68
-226 0 -108 16 -173 68 -285 101 -215 277 -361 449 -373 67 -5 72 -4 166 44
126 64 173 111 200 199 13 40 21 95 21 136 0 67 1 69 22 64 13 -2 100 -9 193
-15 184 -12 362 -23 603 -40 144 -9 243 -16 602 -40 85 -6 218 -15 295 -20 77
-5 212 -14 300 -19 88 -6 181 -13 207 -17 l48 -6 192 -286 c105 -158 228 -341
273 -407 45 -66 242 -359 438 -652 l357 -531 -55 -31 c-78 -44 -130 -94 -159
-154 -24 -46 -26 -62 -26 -171 0 -146 18 -196 97 -266 104 -93 245 -140 424
-140 194 0 344 52 445 155 68 71 84 118 84 255 0 99 -2 111 -30 167 -32 63
-79 110 -157 154 -24 13 -43 27 -43 30 0 4 78 123 174 265 245 366 829 1237
966 1441 133 198 97 178 340 193 189 12 405 26 605 40 83 6 218 15 300 20 83
6 215 15 295 21 142 9 265 18 580 39 85 5 178 13 206 16 l52 6 4 -94 c7 -157
44 -216 188 -298 111 -63 155 -75 228 -60 156 32 308 161 401 340 58 112 81
200 81 312 0 166 -37 232 -174 313 -110 64 -124 68 -203 67 -63 -1 -174 -42
-215 -79 -16 -15 -21 -9 -72 98 -29 63 -140 290 -246 504 -106 215 -234 476
-285 580 -51 105 -165 338 -253 518 l-161 328 73 152 c41 84 139 285 219 447
241 492 472 962 589 1203 61 125 115 227 119 227 4 0 29 -13 56 -30 63 -39
163 -64 222 -56 61 8 224 100 267 150 47 55 68 124 68 226 0 106 -16 172 -66
280 -100 216 -278 366 -451 378 -67 5 -72 4 -166 -44 -126 -64 -173 -111 -200
-199 -13 -40 -21 -95 -21 -135 0 -60 -2 -68 -17 -64 -10 2 -97 8 -193 14 -96
5 -238 15 -315 20 -305 21 -446 31 -585 40 -80 5 -212 14 -295 20 -144 10
-263 18 -605 40 -85 5 -178 12 -206 15 l-50 6 -450 669 c-247 369 -531 791
-630 940 l-181 270 53 30 c77 43 129 93 158 153 24 46 26 62 26 171 0 106 -3
127 -24 171 -44 95 -155 173 -307 215 -98 27 -282 27 -385 0z"/>
</g>
</svg>
