<svg width="96" height="180" viewBox="0 0 96 180" fill="none" xmlns="http://www.w3.org/2000/svg">
<path d="M21.0203 165.036C18.8594 167.58 11.83 173.936 1 179H57.4381V165.036L71.7383 149.768L87.1826 138.41L95 116.998V99.1234L87.1826 102.289L83.9412 116.998L76.8864 130.776L64.4929 138.41L48.286 155.54V138.41V85.159L57.4381 61.1402L64.4929 56.113L76.8864 47.9205L80.6998 35.818V19.4331L76.8864 1H71.7383V15.523V29.4874L64.4929 44.0105L52.2901 51.6444L42.5659 61.1402L30.7444 85.159V61.1402L21.0203 70.0774V138.41L13.9655 130.776V99.1234H8.05477V130.776L21.0203 146.603V165.036Z" fill="#ff00c8"/>
</svg>
